<svg width="96" height="72" viewBox="0 0 96 72" fill="none" xmlns="http://www.w3.org/2000/svg">
<path d="M64 20H56V32H44V40H56V52H64V40H76V32H64V20ZM8 36C8 24.84 14.56 15.2 24.04 10.72V2.08C10.08 7.04 0 20.36 0 36C0 51.64 10.08 64.96 24.04 69.92V61.28C14.56 56.8 8 47.16 8 36ZM60 0C40.16 0 24 16.16 24 36C24 55.84 40.16 72 60 72C79.84 72 96 55.84 96 36C96 16.16 79.84 0 60 0ZM60 64C44.56 64 32 51.44 32 36C32 20.56 44.56 8 60 8C75.44 8 88 20.56 88 36C88 51.44 75.44 64 60 64Z" fill="#FF8F00"/>
</svg>
